<svg width="123" height="123" viewBox="0 0 123 123" fill="none" xmlns="http://www.w3.org/2000/svg">
<g opacity="0.4" filter="url(#filter0_d_1441_5838)">
<path d="M20.0885 74.5909C19.1433 74.8999 18.624 75.9181 18.9705 76.8502C22.0642 85.1722 27.5559 92.4075 34.7696 97.6291C42.4703 103.203 51.7379 106.196 61.2442 106.179C70.7505 106.163 80.0075 103.137 87.6884 97.5353C94.8835 92.2883 100.35 85.0336 103.414 76.7007C103.757 75.7674 103.234 74.751 102.288 74.4453V74.4453C101.341 74.1397 100.33 74.6608 99.9839 75.593C97.1556 83.2025 92.1471 89.8267 85.5664 94.6256C78.5 99.7788 69.9836 102.563 61.2378 102.578C52.492 102.594 43.9658 99.84 36.8812 94.7119C30.2837 89.9363 25.2517 83.3298 22.3965 75.7304C22.0467 74.7994 21.0337 74.2819 20.0885 74.5909V74.5909Z" fill="#FA05F1"/>
<path d="M20.0885 74.5909C19.1433 74.8999 18.624 75.9181 18.9705 76.8502C22.0642 85.1722 27.5559 92.4075 34.7696 97.6291C42.4703 103.203 51.7379 106.196 61.2442 106.179C70.7505 106.163 80.0075 103.137 87.6884 97.5353C94.8835 92.2883 100.35 85.0336 103.414 76.7007C103.757 75.7674 103.234 74.751 102.288 74.4453V74.4453C101.341 74.1397 100.33 74.6608 99.9839 75.593C97.1556 83.2025 92.1471 89.8267 85.5664 94.6256C78.5 99.7788 69.9836 102.563 61.2378 102.578C52.492 102.594 43.9658 99.84 36.8812 94.7119C30.2837 89.9363 25.2517 83.3298 22.3965 75.7304C22.0467 74.7994 21.0337 74.2819 20.0885 74.5909V74.5909Z" fill="url(#paint0_linear_1441_5838)"/>
</g>
<g opacity="0.1" filter="url(#filter1_d_1441_5838)">
<path d="M102.123 47.3834C103.066 47.0663 103.576 46.0436 103.222 45.1145C100.056 36.8196 94.5019 29.6321 87.2432 24.4732C79.4946 18.966 70.2015 16.0532 60.6957 16.1523C51.1898 16.2514 41.9594 19.3573 34.3273 25.0248C27.1778 30.334 21.7748 37.6357 18.7828 45.9948C18.4477 46.9311 18.9793 47.9429 19.9282 48.2404V48.2404C20.8772 48.5378 21.8838 48.0079 22.2222 47.0728C24.9845 39.4391 29.9355 32.7718 36.4743 27.9161C43.4959 22.7019 51.9879 19.8445 60.7332 19.7533C69.4785 19.6622 78.0283 22.3419 85.157 27.4085C91.7956 32.1268 96.8845 38.6895 99.8054 46.264C100.163 47.1918 101.181 47.7006 102.123 47.3834V47.3834Z" fill="white"/>
<path d="M102.123 47.3834C103.066 47.0663 103.576 46.0436 103.222 45.1145C100.056 36.8196 94.5019 29.6321 87.2432 24.4732C79.4946 18.966 70.2015 16.0532 60.6957 16.1523C51.1898 16.2514 41.9594 19.3573 34.3273 25.0248C27.1778 30.334 21.7748 37.6357 18.7828 45.9948C18.4477 46.9311 18.9793 47.9429 19.9282 48.2404V48.2404C20.8772 48.5378 21.8838 48.0079 22.2222 47.0728C24.9845 39.4391 29.9355 32.7718 36.4743 27.9161C43.4959 22.7019 51.9879 19.8445 60.7332 19.7533C69.4785 19.6622 78.0283 22.3419 85.157 27.4085C91.7956 32.1268 96.8845 38.6895 99.8054 46.264C100.163 47.1918 101.181 47.7006 102.123 47.3834V47.3834Z" fill="url(#paint1_linear_1441_5838)"/>
</g>
<path d="M36.2495 96.4685C35.676 97.281 35.8679 98.4078 36.7026 98.9483C44.1549 103.774 52.8812 106.296 61.7855 106.174C70.6899 106.053 79.344 103.293 86.6617 98.2656C87.4813 97.7025 87.6423 96.5708 87.0468 95.7744V95.7744C86.4514 94.9779 85.325 94.8185 84.5034 95.3788C77.7965 99.9527 69.8801 102.462 61.7363 102.574C53.5925 102.685 45.6106 100.393 38.7811 96.0036C37.9445 95.466 36.823 95.6561 36.2495 96.4685V96.4685Z" fill="#FA05F1"/>
<path d="M36.2495 96.4685C35.676 97.281 35.8679 98.4078 36.7026 98.9483C44.1549 103.774 52.8812 106.296 61.7855 106.174C70.6899 106.053 79.344 103.293 86.6617 98.2656C87.4813 97.7025 87.6423 96.5708 87.0468 95.7744V95.7744C86.4514 94.9779 85.325 94.8185 84.5034 95.3788C77.7965 99.9527 69.8801 102.462 61.7363 102.574C53.5925 102.685 45.6106 100.393 38.7811 96.0036C37.9445 95.466 36.823 95.6561 36.2495 96.4685V96.4685Z" fill="url(#paint2_linear_1441_5838)"/>
<defs>
<filter id="filter0_d_1441_5838" x="13.6441" y="74.3594" width="95.0946" height="42.2587" filterUnits="userSpaceOnUse" color-interpolation-filters="sRGB">
<feFlood flood-opacity="0" result="BackgroundImageFix"/>
<feColorMatrix in="SourceAlpha" type="matrix" values="0 0 0 0 0 0 0 0 0 0 0 0 0 0 0 0 0 0 127 0" result="hardAlpha"/>
<feOffset dy="5.21918"/>
<feGaussianBlur stdDeviation="2.60959"/>
<feComposite in2="hardAlpha" operator="out"/>
<feColorMatrix type="matrix" values="0 0 0 0 0 0 0 0 0 0 0 0 0 0 0 0 0 0 0.25 0"/>
<feBlend mode="normal" in2="BackgroundImageFix" result="effect1_dropShadow_1441_5838"/>
<feBlend mode="normal" in="SourceGraphic" in2="effect1_dropShadow_1441_5838" result="shape"/>
</filter>
<filter id="filter1_d_1441_5838" x="13.4644" y="16.1484" width="95.0907" height="42.6141" filterUnits="userSpaceOnUse" color-interpolation-filters="sRGB">
<feFlood flood-opacity="0" result="BackgroundImageFix"/>
<feColorMatrix in="SourceAlpha" type="matrix" values="0 0 0 0 0 0 0 0 0 0 0 0 0 0 0 0 0 0 127 0" result="hardAlpha"/>
<feOffset dy="5.21918"/>
<feGaussianBlur stdDeviation="2.60959"/>
<feComposite in2="hardAlpha" operator="out"/>
<feColorMatrix type="matrix" values="0 0 0 0 0 0 0 0 0 0 0 0 0 0 0 0 0 0 0.25 0"/>
<feBlend mode="normal" in2="BackgroundImageFix" result="effect1_dropShadow_1441_5838"/>
<feBlend mode="normal" in="SourceGraphic" in2="effect1_dropShadow_1441_5838" result="shape"/>
</filter>
<linearGradient id="paint0_linear_1441_5838" x1="125.288" y1="45.1419" x2="43.5087" y2="-8.95444e-05" gradientUnits="userSpaceOnUse">
<stop stop-color="#FA05F1"/>
<stop offset="0.489583" stop-color="#7156FB"/>
<stop offset="1" stop-color="#00E4AA"/>
</linearGradient>
<linearGradient id="paint1_linear_1441_5838" x1="-2.81775" y1="77.7417" x2="79.3494" y2="122.174" gradientUnits="userSpaceOnUse">
<stop stop-color="#FA05F1"/>
<stop offset="0.489583" stop-color="#7156FB"/>
<stop offset="1" stop-color="#00E4AA"/>
</linearGradient>
<linearGradient id="paint2_linear_1441_5838" x1="103.025" y1="10.0087" x2="10.4737" y2="22.6584" gradientUnits="userSpaceOnUse">
<stop stop-color="#FA05F1"/>
<stop offset="0.489583" stop-color="#7156FB"/>
<stop offset="1" stop-color="#00E4AA"/>
</linearGradient>
</defs>
</svg>
